<?xml version="1.0" encoding="UTF-8"?>
<svg width="128" height="128" viewBox="0 0 128 128" fill="none" xmlns="http://www.w3.org/2000/svg">
    <rect width="128" height="128" rx="64" fill="#4080FF"/>
    <path d="M64 28C42.9086 28 26 44.9086 26 66C26 87.0914 42.9086 104 64 104C85.0914 104 102 87.0914 102 66C102 44.9086 85.0914 28 64 28ZM64 40C78.3594 40 90 51.6406 90 66C90 80.3594 78.3594 92 64 92C49.6406 92 38 80.3594 38 66C38 51.6406 49.6406 40 64 40Z" fill="white"/>
    <path d="M64 48C54.0589 48 46 56.0589 46 66C46 75.9411 54.0589 84 64 84C73.9411 84 82 75.9411 82 66C82 56.0589 73.9411 48 64 48ZM64 60C67.3137 60 70 62.6863 70 66C70 69.3137 67.3137 72 64 72C60.6863 72 58 69.3137 58 66C58 62.6863 60.6863 60 64 60Z" fill="white"/>
</svg> 